<svg xmlns="http://www.w3.org/2000/svg" xmlns:xlink="http://www.w3.org/1999/xlink" viewBox="0 0 2947.94 2907.44"><defs><style>.cls-1{isolation:isolate;}.cls-2{fill:#f4f7fa;}.cls-3{fill:url(#linear-gradient);}.cls-4{fill:url(#linear-gradient-2);}.cls-5{fill:url(#linear-gradient-3);}.cls-6{fill:#de8bdf;}.cls-10,.cls-11,.cls-15,.cls-7{mix-blend-mode:soft-light;}.cls-7{opacity:0.48;}.cls-10,.cls-11,.cls-12,.cls-8{fill:#fff;}.cls-9{fill:url(#linear-gradient-4);}.cls-11{opacity:0.35;}.cls-12{opacity:0.7;}.cls-13{opacity:0.74;}.cls-14{fill:url(#linear-gradient-5);}.cls-16{fill:url(#linear-gradient-6);}.cls-17{fill:url(#linear-gradient-7);}.cls-18{fill:url(#linear-gradient-8);}.cls-19{fill:url(#linear-gradient-9);}.cls-20{fill:url(#linear-gradient-10);}.cls-21{fill:url(#linear-gradient-11);}.cls-22{fill:url(#linear-gradient-12);}.cls-23,.cls-31,.cls-39,.cls-42{mix-blend-mode:multiply;opacity:0.3;}.cls-23{fill:url(#linear-gradient-13);}.cls-24{fill:url(#linear-gradient-14);}.cls-25{fill:#26264f;}.cls-26{fill:url(#linear-gradient-15);}.cls-27{fill:url(#linear-gradient-16);}.cls-28{fill:url(#linear-gradient-17);}.cls-29{fill:url(#linear-gradient-18);}.cls-30{fill:url(#linear-gradient-19);}.cls-31{fill:url(#linear-gradient-20);}.cls-32{fill:url(#linear-gradient-21);}.cls-33{fill:url(#linear-gradient-22);}.cls-34{fill:url(#linear-gradient-23);}.cls-35{fill:url(#linear-gradient-24);}.cls-36{fill:url(#linear-gradient-25);}.cls-37{fill:url(#linear-gradient-26);}.cls-38{fill:url(#linear-gradient-27);}.cls-39{fill:url(#linear-gradient-28);}.cls-40{fill:url(#linear-gradient-29);}.cls-41{fill:url(#linear-gradient-30);}.cls-43{fill:url(#linear-gradient-31);}.cls-44{fill:url(#linear-gradient-32);}.cls-45{fill:url(#linear-gradient-33);}.cls-46{fill:url(#linear-gradient-34);}</style><linearGradient id="linear-gradient" x1="2306.74" y1="2584.42" x2="1098.13" y2="1553.42" gradientUnits="userSpaceOnUse"><stop offset="0" stop-color="#444b8c"/><stop offset="1" stop-color="#26264f"/></linearGradient><linearGradient id="linear-gradient-2" x1="-1173.21" y1="2716.91" x2="3088.06" y2="2875.42" gradientTransform="translate(-1389.03 1734.32) rotate(-90)" xlink:href="#linear-gradient"/><linearGradient id="linear-gradient-3" x1="1931.27" y1="787.21" x2="-1267.85" y2="6050.62" gradientUnits="userSpaceOnUse"><stop offset="0" stop-color="#ffc444"/><stop offset="1" stop-color="#f36f56"/></linearGradient><linearGradient id="linear-gradient-4" x1="3072.1" y1="814.94" x2="5908.42" y2="2897.64" gradientTransform="matrix(-1, 0, 0, 1, 5811, 0)" gradientUnits="userSpaceOnUse"><stop offset="0" stop-color="#aa80f9"/><stop offset="1" stop-color="#6165d7"/></linearGradient><linearGradient id="linear-gradient-5" x1="3648.89" y1="914.28" x2="2954.41" y2="2187.49" xlink:href="#linear-gradient-4"/><linearGradient id="linear-gradient-6" x1="6688.56" y1="3931.69" x2="6746.3" y2="3983.05" gradientTransform="matrix(-0.99, -0.14, -0.14, 0.99, 8522.92, 206.94)" xlink:href="#linear-gradient"/><linearGradient id="linear-gradient-7" x1="6535.57" y1="3413.71" x2="6535.57" y2="3313.12" gradientTransform="matrix(-1, 0.05, 0.05, 1, 7646.48, -528.79)" xlink:href="#linear-gradient-3"/><linearGradient id="linear-gradient-8" x1="6694.36" y1="3925.17" x2="6752.1" y2="3976.53" gradientTransform="matrix(-0.99, -0.14, -0.14, 0.99, 8522.92, 206.94)" xlink:href="#linear-gradient"/><linearGradient id="linear-gradient-9" x1="6690.57" y1="3227.34" x2="6748.31" y2="3278.7" gradientTransform="matrix(-1, 0, 0, 1, 8420.08, 0)" xlink:href="#linear-gradient"/><linearGradient id="linear-gradient-10" x1="6482.91" y1="2665.18" x2="6482.91" y2="2564.59" gradientTransform="matrix(-0.98, 0.19, 0.19, 0.98, 7519.86, -582.01)" xlink:href="#linear-gradient-3"/><linearGradient id="linear-gradient-11" x1="6696.38" y1="3220.81" x2="6754.12" y2="3272.17" gradientTransform="matrix(-1, 0, 0, 1, 8420.08, 0)" xlink:href="#linear-gradient"/><linearGradient id="linear-gradient-12" x1="4395.38" y1="2671.55" x2="4633.97" y2="2671.55" gradientTransform="matrix(-1, 0, 0, 1, 5811, 0)" gradientUnits="userSpaceOnUse"><stop offset="0" stop-color="#311944"/><stop offset="1" stop-color="#6b3976"/></linearGradient><linearGradient id="linear-gradient-13" x1="4395.38" y1="2671.55" x2="4614.54" y2="2671.55" xlink:href="#linear-gradient-12"/><linearGradient id="linear-gradient-14" x1="4836.74" y1="2834.84" x2="4180.38" y2="2716.4" gradientTransform="matrix(-1, 0, 0, 1, 5811, 0)" gradientUnits="userSpaceOnUse"><stop offset="0" stop-color="#311944"/><stop offset="0.74" stop-color="#5c3169"/><stop offset="1" stop-color="#6b3976"/></linearGradient><linearGradient id="linear-gradient-15" x1="4026.13" y1="1731.85" x2="3726.12" y2="1625.39" gradientTransform="matrix(-1, 0, 0, 1, 5811, 0)" gradientUnits="userSpaceOnUse"><stop offset="0" stop-color="#ffc444"/><stop offset="0.64" stop-color="#f78e50"/><stop offset="1" stop-color="#f36f56"/></linearGradient><linearGradient id="linear-gradient-16" x1="3860.38" y1="1709.6" x2="3825.08" y2="1870.72" gradientTransform="matrix(-1, 0, 0, 1, 5811, 0)" xlink:href="#linear-gradient-3"/><linearGradient id="linear-gradient-17" x1="4042.83" y1="1910.93" x2="4708.51" y2="1910.93" gradientTransform="matrix(-1, 0, 0, 1, 5811, 0)" gradientUnits="userSpaceOnUse"><stop offset="0" stop-color="#ff9085"/><stop offset="1" stop-color="#fb6fbb"/></linearGradient><linearGradient id="linear-gradient-18" x1="7396.86" y1="367.74" x2="7651.48" y2="688.08" gradientTransform="matrix(-0.97, 0.26, 0.26, 0.97, 8555.34, -923.84)" xlink:href="#linear-gradient-3"/><linearGradient id="linear-gradient-19" x1="7365.21" y1="296.47" x2="7649.5" y2="654.13" gradientTransform="matrix(-0.97, 0.26, 0.26, 0.97, 8555.34, -923.84)" xlink:href="#linear-gradient-3"/><linearGradient id="linear-gradient-20" x1="4028.6" y1="1853.54" x2="4436.76" y2="2243.29" xlink:href="#linear-gradient-17"/><linearGradient id="linear-gradient-21" x1="3849.22" y1="1753.27" x2="4213.08" y2="1753.27" xlink:href="#linear-gradient-17"/><linearGradient id="linear-gradient-22" x1="3915.53" y1="1063.43" x2="3861.2" y2="1279.3" gradientTransform="matrix(-1, 0, 0, 1, 5811, 0)" xlink:href="#linear-gradient-3"/><linearGradient id="linear-gradient-23" x1="-1039.32" y1="3079.82" x2="-934.44" y2="3079.82" gradientTransform="matrix(1, 0.03, -0.03, 1, 3605.02, -30.99)" xlink:href="#linear-gradient"/><linearGradient id="linear-gradient-24" x1="-603.28" y1="3279.91" x2="-557.27" y2="3184.68" gradientTransform="matrix(0.99, 0.12, -0.12, 0.99, 3537.79, -162.4)" xlink:href="#linear-gradient-3"/><linearGradient id="linear-gradient-25" x1="-591.47" y1="3566.97" x2="-480.04" y2="3566.97" gradientTransform="matrix(0.96, 0.27, -0.27, 0.96, 3618.15, -308.92)" xlink:href="#linear-gradient"/><linearGradient id="linear-gradient-26" x1="-772.87" y1="3438.94" x2="-725.88" y2="3341.69" gradientTransform="translate(3606.94 -227.18) rotate(11.41)" xlink:href="#linear-gradient-3"/><linearGradient id="linear-gradient-27" x1="3672.15" y1="2792.19" x2="3374.95" y2="2122.24" gradientTransform="matrix(-1, 0, 0, 1, 5811, 0)" xlink:href="#linear-gradient"/><linearGradient id="linear-gradient-28" x1="3672.15" y1="2792.19" x2="3374.95" y2="2122.24" gradientTransform="matrix(-1, 0, 0, 1, 5811, 0)" xlink:href="#linear-gradient"/><linearGradient id="linear-gradient-29" x1="3048.05" y1="3128.12" x2="2750.87" y2="2458.2" gradientTransform="matrix(-0.99, -0.12, -0.12, 0.99, 5727.62, 107.97)" xlink:href="#linear-gradient"/><linearGradient id="linear-gradient-30" x1="-3213.99" y1="1047.83" x2="-2167.22" y2="1758.84" gradientTransform="translate(5580.72)" xlink:href="#linear-gradient-12"/><linearGradient id="linear-gradient-31" x1="3083.2" y1="2338.09" x2="3434.57" y2="1415.2" xlink:href="#linear-gradient-4"/><linearGradient id="linear-gradient-32" x1="5008.06" y1="803.7" x2="5018.76" y2="518.72" gradientTransform="matrix(-0.98, 0.18, 0.18, 0.98, 7329.15, -244.24)" xlink:href="#linear-gradient-3"/><linearGradient id="linear-gradient-33" x1="5004.72" y1="552.12" x2="5000.14" y2="921.09" gradientTransform="matrix(-0.98, 0.18, 0.18, 0.98, 7329.15, -244.24)" xlink:href="#linear-gradient-3"/><linearGradient id="linear-gradient-34" x1="3368.15" y1="1710.18" x2="3335.06" y2="1908.76" gradientTransform="matrix(-1, 0, 0, 1, 5811, 0)" gradientUnits="userSpaceOnUse"><stop offset="0" stop-color="#ffc444"/><stop offset="0.23" stop-color="#fcb048"/><stop offset="1" stop-color="#f36f56"/></linearGradient></defs><g class="cls-1"><g id="Illustration"><path class="cls-2" d="M1266.36,574c-256.81-118.36-671.77-80.2-871.58,222.57C198.88,1093.4,647.17,1425.88,513,2103.49c-72.14,364.43-204.1,491.27-123.56,715.64C472.55,3050.58,719,3210.93,940.35,3267c456.59,115.76,655.51-250.26,1168.7-123.56,176.59,43.6,236.72,107.6,422.17,108.12,44.42.12,390.55,1.39,571.48-200.79,280.72-313.68-183.36-729-95.26-1691.63,14.73-160.88,45.23-340.94-54-528.67C2815.82,570.37,2526.11,481.68,2414.46,445c-271.58-89.12-685.21-101.88-795.91,89.23C1582.76,596.05,1422.53,646,1266.36,574Z" transform="translate(-344.43 -382.57)"/><path class="cls-3" d="M2120.19,522.07V2838.28c0,34.64-34.38,44.09-73.46,47.45L647.23,3029.1,625.09,3031c-45.52,3.95-82.92-23.57-82.92-61.18V455.18c0-37.6,37.4-66.66,82.92-64.57l30,1.37L2058.89,508.4C2097.94,510.12,2120.19,487.43,2120.19,522.07Z" transform="translate(-344.43 -382.57)"/><path class="cls-4" d="M2161.72,522.72V2835.93c0,34.59-31.76,65.65-70.73,69L670.59,3028.3c-45.4,3.94-82.7-23.54-82.7-61.1V456c0-37.56,37.3-66.57,82.7-64.49L2091,456.58C2130,458.36,2161.72,488.12,2161.72,522.72Z" transform="translate(-344.43 -382.57)"/><path class="cls-5" d="M2117.83,649.37V2795.23c0,32.34-29.76,61.31-66.27,64.38L716.12,2972.05c-42.15,3.54-76.76-22.13-76.76-57.06V597c0-34.94,34.61-62.19,76.76-60.56L2051.56,588C2088.07,589.42,2117.83,617,2117.83,649.37Z" transform="translate(-344.43 -382.57)"/><path class="cls-6" d="M1433.43,499c0,12.47-11.77,22.09-26.32,21.5s-26.4-11.21-26.4-23.71,11.83-22.13,26.4-21.5S1433.43,486.58,1433.43,499Z" transform="translate(-344.43 -382.57)"/><g class="cls-7"><path class="cls-8" d="M1713.66,1894.21c-127.79-277.7-476.7-225.89-586.76-510.06-90.32-233.2,110-356.66,31.83-625.39-44-151.29-152.71-269.1-264.5-357L670.59,391.47c-45.4-2.09-82.7,26.93-82.7,64.49V2967.2c0,37.56,37.3,65,82.7,61.1l1098.65-95.39c-85.79-115.66-120.38-221.43-132.61-309.24C1592,2303.63,1829.94,2146.94,1713.66,1894.21Z" transform="translate(-344.43 -382.57)"/></g><path class="cls-9" d="M857.6,677.76l2116.71,38c42.48.76,76.72,45.89,76.72,100.81v1250c0,54.91-34.24,102.59-76.72,106.51L857.6,2368.32c-57.57,5.31-104.55-42.65-104.55-107.17V792.69C753.05,728.18,800,676.72,857.6,677.76Z" transform="translate(-344.43 -382.57)"/><path class="cls-10" d="M2131.84,1346.49c0,267,175.46,472.59,386,459.47,204.21-12.73,365.34-227.69,365.34-480.48S2722,866.75,2517.8,865.44C2307.3,864.09,2131.84,1079.45,2131.84,1346.49Z" transform="translate(-344.43 -382.57)"/><path class="cls-11" d="M2154.61,1331.52c4.88-192.07,106.26-354.2,244.14-414.38,37.47-16.36,77.53-25.22,119.05-25,192.79.86,345.14,195.13,345.14,433.94s-152.35,441.6-345.14,453.24c-198.39,12-363.49-181.93-363.49-433.43C2154.31,1341.06,2154.49,1336.3,2154.61,1331.52Z" transform="translate(-344.43 -382.57)"/><path class="cls-12" d="M2154.61,1331.52c4.88-192.07,106.26-354.2,244.14-414.38,37.47-16.36,77.53-25.22,119.05-25,192.79.86,345.14,195.13,345.14,433.94s-152.35,441.6-345.14,453.24c-198.39,12-363.49-181.93-363.49-433.43C2154.31,1341.06,2154.49,1336.3,2154.61,1331.52Z" transform="translate(-344.43 -382.57)"/><g class="cls-13"><path class="cls-14" d="M2154.61,1331.52c4.88-192.07,106.26-354.2,244.14-414.38L2517.8,1335.7Z" transform="translate(-344.43 -382.57)"/></g><polygon class="cls-10" points="1758.93 1568.54 2564.14 1511.53 2564.14 1467.67 1758.93 1522.02 1758.93 1568.54"/><polygon class="cls-10" points="1758.93 1661.57 2564.14 1599.25 2564.14 1555.39 1758.93 1615.05 1758.93 1661.57"/><path class="cls-10" d="M1221.56,1673.8c63.39,2.58,72.79-46.88,135-52.2,105-9,130.65,128.66,231.19,125.35,81.68-2.7,102.18-95.54,182.62-86.07,59.58,7,71.29,61,129.17,68.08a102.51,102.51,0,0,0,33.93-1.67v319.94L945.12,2123.4V1542.84c54.26,4.86,93.77,21,122,37.35C1134.94,1619.49,1157.39,1671.19,1221.56,1673.8Z" transform="translate(-344.43 -382.57)"/><g class="cls-15"><polygon class="cls-8" points="600.69 552.43 1589.02 554.28 1589.02 521.73 600.69 517.62 600.69 552.43"/><polygon class="cls-8" points="600.69 622.05 1589.02 619.39 1589.02 586.84 600.69 587.24 600.69 622.05"/><polygon class="cls-8" points="600.69 731.7 1589.02 721.94 1589.02 689.39 600.69 696.89 600.69 731.7"/><polygon class="cls-8" points="600.69 801.32 1589.02 787.05 1589.02 754.5 600.69 766.51 600.69 801.32"/><polygon class="cls-8" points="600.69 910.98 1589.02 889.6 1589.02 857.05 600.69 876.17 600.69 910.98"/><polygon class="cls-8" points="600.69 980.6 1589.02 954.71 1589.02 922.16 600.69 945.79 600.69 980.6"/></g><path class="cls-16" d="M1333.24,3189.82c-1.64-9.05-30.87-17.24-45.35-5.12-7.18,6-12.13,18.23-8,23.74,1.52,2-4.68,5.53,1.26,5.6C1300.86,3214.27,1334.88,3198.82,1333.24,3189.82Z" transform="translate(-344.43 -382.57)"/><path class="cls-17" d="M1301.28,3189.87l-30.33,1.51c10.51-19.1-2.12-71.05-2.12-71.05l32.74,1s-.81,15.08-2.8,37.48C1298.09,3166.45,1299.35,3178,1301.28,3189.87Z" transform="translate(-344.43 -382.57)"/><path class="cls-18" d="M1305.27,3189.42s-36.2-8.34-40.11-1.16-7,26.4,16,25.78S1307.31,3195.5,1305.27,3189.42Z" transform="translate(-344.43 -382.57)"/><path class="cls-19" d="M1717.09,3255.48c-2.89-8.73-33-12.76-45.62,1.28-6.27,7-9.47,19.74-4.58,24.61,1.78,1.78-3.86,6.13,2,5.37C1688.45,3284.21,1720,3264.15,1717.09,3255.48Z" transform="translate(-344.43 -382.57)"/><path class="cls-20" d="M1681.53,3263.89l-29.79,5.85c7.66-20.41-12.3-70-12.3-70L1672,3196s1.36,15,2.6,37.5C1675,3241.17,1677.92,3252.42,1681.53,3263.89Z" transform="translate(-344.43 -382.57)"/><path class="cls-21" d="M1689.34,3259s-37-3.19-39.88,4.47-3.19,27.11,19.46,23.28S1692.21,3264.73,1689.34,3259Z" transform="translate(-344.43 -382.57)"/><path class="cls-22" d="M1415.62,2215.23q-12.16,208.11-34.78,432.32c-17.73,173-39.27,338.25-63.42,495.33-29.78,10.21-57.29,0-57.29,0s-34.81-57-61.38-208.56c-17-97.23-18.22-96-18.41-113-1-85.57,29.05-110.35,34.78-186.83,5.29-70.77-17.23-92-30.69-171.63-10.35-61.26-14.23-150.53,18.41-267.21Z" transform="translate(-344.43 -382.57)"/><path class="cls-23" d="M1415.62,2215.23q-12.16,208.11-34.78,432.32c-17.73,173-39.27,338.25-63.42,495.33-29.78,10.21-57.29,0-57.29,0,.38-14.54,1.39-36.45,4.43-62.92,8-70.19,20.89-90.17,22.21-133.24,1.68-55.09-18.27-56.79-22.21-111-6.12-84.09,40-104,44.41-177.66,4.61-77.8-44.1-103.4-81.42-199.87-22-57-41.59-142.45-24.71-262.47Z" transform="translate(-344.43 -382.57)"/><path class="cls-24" d="M1565,2210.88a2906.53,2906.53,0,0,1,102.29,506.19,2927.49,2927.49,0,0,1,12.28,504L1640.68,3232c-75.35-78.84-102.25-151.29-112.53-204.21-15.21-78.29,7.7-104.83-12.28-193.36-4.59-20.36-11.06-42.23-85.93-189-71.45-140.08-86.1-160.43-98.2-210.73-17.28-71.81-12.72-135.49-6.14-178.14Z" transform="translate(-344.43 -382.57)"/><path class="cls-25" d="M1886.27,1914.08l127.86-299.51a26.33,26.33,0,0,0-18-35.92l-234.21-56.88a26.34,26.34,0,0,0-30.59,15.63l-117.6,287.86a26.34,26.34,0,0,0,16.67,35.14l223.95,68.52A26.33,26.33,0,0,0,1886.27,1914.08Z" transform="translate(-344.43 -382.57)"/><path class="cls-26" d="M1880.49,1899.67l119.43-279.76a24.6,24.6,0,0,0-16.82-33.55l-218.77-53.13a24.59,24.59,0,0,0-28.57,14.6l-109.85,268.88a24.6,24.6,0,0,0,15.57,32.82l209.19,64A24.6,24.6,0,0,0,1880.49,1899.67Z" transform="translate(-344.43 -382.57)"/><path class="cls-27" d="M1954.22,1817.43l3.83-35.29,20.34-38.76a36.86,36.86,0,0,0,4.21-17.12v-38.49l-24.55,56.78s-16.11-14.58-22.25-17.65-5.37,9.21-.76,13.81-2.31,42.2,2.3,46l-1.54,23Z" transform="translate(-344.43 -382.57)"/><path class="cls-28" d="M1759.34,1592.63c-19.09-46.68-60.08-73.54-81.33-87.46-50.28-33-82.47-26.93-197.94-44.5-153.89-23.41-172.31-45.6-224-27.62-67.94,23.62-103.43,85.29-119.69,113.55-82,142.48,13.87,214.89-10.74,498.7-10,115.91-35.82,216.63,26.08,276.2,13,12.54,27.62,19.1,56.78,32.23,115.65,52,219.33,43.06,282.34,36.82,69.33-6.86,104.37-10.79,122.76-35.29,29.36-39.13-.87-88.86-6.14-174.93-3.79-61.79,10.26-110.76,38.36-208.68C1711.11,1744,1795.92,1682.08,1759.34,1592.63Z" transform="translate(-344.43 -382.57)"/><path class="cls-29" d="M1501.75,1376.69c7-25-5.24-48.08-7.94-53.06-11.3-20.85-14.2-23.7-19.59-27.31l-7.5-4.63s-.43-.17-.89-.33c-4.81-1.71-21.21-2.21-24.53-1.5-10.61,2.26-21.91,45.49-18.68,106.61q-.66,3.49-1.28,7-2.5,14.48-4,28.36c-1,8.84-13.53,8.64-22.41,8.08-36.06-2.31-53.71.76-55.25,6.13-2.87,10.07,39.9,43,92.71,50.37,70.88.53,128.54-7,122.35-18.18-2.76-5-57.67-19.31-73.12-33.53-14.14-13-13-26.47-14.15-36.1C1471.73,1406.43,1496.6,1395.08,1501.75,1376.69Z" transform="translate(-344.43 -382.57)"/><path class="cls-25" d="M1488.72,1274.33c-.07,18.94-9,39.16-13.53,42.41a31.5,31.5,0,0,0-6.86,7.49,9.55,9.55,0,0,0-1.08,2.24c-4.15,11.93,14.82,26,11.16,31.31-2.66,3.88-15.55-1.3-17.08,2-1.45,3.15,9.27,9.68,7.63,13.45-1.24,2.84-7.83.24-12,4.6-2.08,2.18-1.47,3.9-3.66,10.54a60,60,0,0,1-4.33,10.15c-6.54,11.12-25.08,15.18-28.64,10.73-1-1.24-.14-2.28-1.16-6.44a33.32,33.32,0,0,0-3.62-8.31c-3.83-6.37-13.09-10.93-22.43-17.65-17.29-12.46-22-23.07-23.4-26.66-.5-1.27-.81-2.24-1-2.93-4.49-14-4.52-34.46,1.76-47.07,10.51-21.11,34.22-11.09,53.63-32,22.39-24.14,9.05-57.14,21.2-60.79C1458.68,1203.41,1488.83,1239.32,1488.72,1274.33Z" transform="translate(-344.43 -382.57)"/><path class="cls-30" d="M1471.61,1353.33c-4.65-6.37-12.8-.38-12.85,7.87s8,16.83,15.7,15.2S1477.85,1361.92,1471.61,1353.33Z" transform="translate(-344.43 -382.57)"/><path class="cls-25" d="M1467.84,1339.53l10.77,14s11.6,17.16,18.38,7.76c5.53-7.69,7-7.51,7.31-7.19.06.06.08.15.1.15s-.82-3.83-1.63-7.16a63.16,63.16,0,0,1,9.21,19.76c2.32,8.73,4.81,18.06-.11,27-.29.51-5.71,10.06-15.83,12.37,0,0-4,.91-20.8-2,0,0,18.38-13.34,18.67-16.5.76-8.62-11.19-13.28-20.07-30.94A71.4,71.4,0,0,1,1467.84,1339.53Z" transform="translate(-344.43 -382.57)"/><path class="cls-31" d="M1431,2309.23c20.39-40.62-29.59-94.6,3.06-156.52,27.74-52.58,78.12-40.8,101.28-89,28-58.21-32.87-101.71-30.69-190.27,2.6-105.87,93.7-211.84,147.31-202.55,34.68,6,39.14,57.76,63.54,114.41-21.59,47.35-46.82,106.68-69.68,186.35-28.1,97.92-42.15,146.89-38.36,208.68,5.27,86.07,35.5,135.8,6.14,174.93-18.39,24.5-53.43,28.43-122.76,35.29-63,6.24-166.69,15.21-282.34-36.82-14.64-6.59-25.6-11.52-34.54-16.39C1354.61,2364.47,1414.79,2341.44,1431,2309.23Z" transform="translate(-344.43 -382.57)"/><path class="cls-32" d="M1961.12,1810.53,1927.36,1796c-19,19.45-43.27,38.36-63.68,32.22-30.41-9.15-22.81-65.1-59.84-163.42-42-111.39-89.57-140-113.55-150.37-13.4-5.79-22.64-9.63-33.76-6.91-51.15,12.5-68.06,145.79-53.71,245.51,8.09,56.19,24,166.37,114.32,218.67,12.84,7.42,83.51,48.32,153.45,16.11C1930.34,1960.24,1967.26,1889.64,1961.12,1810.53Z" transform="translate(-344.43 -382.57)"/><path class="cls-33" d="M1911.33,1173.63s-11.49-23,0-51.69,11.48-74.67,17.23-91.9c1.38-4.15,1.1-6.64-.22-7.61-2.7-2-15.1,14.49-22.76,30.59-13.57,28.54-9.81,50.27-17.23,51.69-8.29,1.58-17.58-24.7-23-23-4.18,1.34,0,18.28,0,34.46,0,11.49,28.72,68.92,28.72,68.92Z" transform="translate(-344.43 -382.57)"/><path class="cls-8" d="M2537.42,1422c1.38-28.13,4.4-89.61-29.61-111-44.91-28.31-111,40.56-185.06,59.22-77.85,19.61-203.48-6.46-407.14-229.48l-37,37c21,74,75,219.56,214.67,325.71,32.61,24.79,230.7,175.36,355.32,96.24C2509.69,1560.87,2534.65,1478.61,2537.42,1422Z" transform="translate(-344.43 -382.57)"/><path class="cls-34" d="M2573.74,2996c5.73,4.66,6.79,16.31,7.47,23.92.31,3.4.47,5.1.09,6.3-2.78,8.75-19.76,9.67-46.4,12.4-42.09,4.29-54.61,7.61-57.91,1.34-3.08-5.87,4.39-15.48,5.23-16.54,4.52-5.7,10.07-7.77,20.81-11.3,19.85-6.53,33.27-10.11,37.33-11.2C2565.73,2994.16,2570,2993,2573.74,2996Z" transform="translate(-344.43 -382.57)"/><path class="cls-35" d="M2548.71,2957.56l-4.22,48c1.2,2.32,15.45,9.27,26.78,3.31l10.82-47.15Z" transform="translate(-344.43 -382.57)"/><path class="cls-36" d="M2205.8,2974.8c6.88,7.59,8.44,21.57,2.46,28.46s-14.71,1.69-39.76,2.44c-26.84.8-33.85,7.14-52.09,2.11-7.36-2-20.38-7-20.13-12.24.17-3.7,6.8-5.61,28.93-13,31.41-10.52,31.27-11.09,37.94-12.2C2179.9,2967.57,2196.72,2964.78,2205.8,2974.8Z" transform="translate(-344.43 -382.57)"/><path class="cls-37" d="M2188.61,2931l-13.47,44.78c1,2.4,14.71,10.41,26.45,5.34l20-43.47Z" transform="translate(-344.43 -382.57)"/><path class="cls-38" d="M2308.21,1950.33a4195.15,4195.15,0,0,1-36.84,503.52,4196,4196,0,0,1-95.7,490.22l51.52,13.86c43.57-40.63,98.54-104.59,125.06-195,16.47-56.1,11-84.93,21.42-153.92,16.63-109.87,50.3-167.42,85.11-256,31.28-79.61,68.25-196.44,88.07-352.61Z" transform="translate(-344.43 -382.57)"/><path class="cls-39" d="M2308.21,1950.33c46.91,35.76,105.21,92.15,103.37,160.1-1.37,50.42-34.57,59.7-59.22,133.25-30.23,90.18,6.6,115.24-14.81,229.48-15.93,85-35.5,66.67-59.22,170.25-21.12,92.23-11.74,133.57-44.41,207.27a398.23,398.23,0,0,1-58.25,93.39l51.52,13.86c43.57-40.63,98.54-104.59,125.06-195,16.46-56.1,11-84.93,21.42-153.92,16.63-109.87,50.3-167.42,85.11-256,31.28-79.61,68.25-196.44,88.07-352.61Z" transform="translate(-344.43 -382.57)"/><path class="cls-40" d="M2497.42,1951q15.76,287.1,25.68,584.76,7.37,223.33,10.9,440.95l52.64,6.5a612.71,612.71,0,0,0,54.89-141.66c18.74-75.11,14.41-119.72,22.63-197.57,9.22-87.32,22.61-106.34,46.34-216.48,48.15-223.54,72.23-335.31,18.53-404.84C2711.6,2000.09,2657,1943.47,2497.42,1951Z" transform="translate(-344.43 -382.57)"/><path class="cls-41" d="M2424.24,1426c-19.69-12.77-1.75-49.91-.69-129.68,1.3-97.76-24.66-116-3.81-154.33,25.5-46.9,89.69-66.31,132.22-67.23,9.38-.2,11.57-5.32,90.16,15,141.57,36.67,177-2.64,240.41,36.62,61.26,37.94,34.44,79.48,93.92,124,96.41,72.11,197.8-5.85,266.71,54.47,65.18,57,66.68,202.41-1.88,281.74-77.72,89.93-217.86,62.91-311.79,45.08C2909.73,1628,2809.91,1607,2706,1530.27a595,595,0,0,1-122.09-121.15c-5.89-6.63-15.09-14.67-27.23-16-14.58-1.56-26.29,7.36-31.93,11.27C2495.09,1425,2443.58,1438.57,2424.24,1426Z" transform="translate(-344.43 -382.57)"/><path class="cls-8" d="M2495.77,1320.38s164.45-48,236.88,34c11.28,12.77,22.7,31.57,31.46,73.06,30.74,145.58-51.07,197.44-39.9,329.54,1.28,15.13,15.56,160.38,121.05,249.66,50.17,42.45,107.33,60.71,105.92,98.35-1,27.1-31.91,51.79-60.53,60.52-54.74,16.71-86.68-29.42-158.87-45.39-75.45-16.68-92.93,22.13-211.84,37.83-39.57,5.23-220.22,29.08-264.79-45.39-19-31.7,4.42-51.62,37.83-181.58,3.38-13.14,61.21-241.53,43.71-341-1.52-8.63-6.63-43.61-5.12-90a218.87,218.87,0,0,1,5.12-39.6s14-64.84,64.4-120.51C2408.34,1331.86,2417,1323.54,2495.77,1320.38Z" transform="translate(-344.43 -382.57)"/><g class="cls-42"><path class="cls-43" d="M2732.65,1354.41c16.58-.18,29.51,63.82,31.46,73.06,30.74,145.58-51.07,197.44-39.9,329.54,1.28,15.13,15.56,160.38,121.05,249.66,50.17,42.45,107.33,60.71,105.92,98.35-1,27.1-31.91,51.79-60.53,60.52-54.74,16.71-86.68-29.42-158.87-45.39-75.45-16.68-92.93,22.13-211.84,37.83-39.57,5.23-220.22,29.08-264.79-45.39-4.6-7.7-6.34-11.06-5.89-14.35,5-36.19,172.22-3.27,214.14-69.24,40.95-64.44-65.15-180.11-29.61-214.67,27.75-27,98.54,37.66,155.45,7.4,35.7-19,41.58-62.34,59.22-155.45C2679.43,1502.79,2707.49,1354.69,2732.65,1354.41Z" transform="translate(-344.43 -382.57)"/></g><path class="cls-44" d="M2548.57,1213.71c-2.23,10.41-13.57,66.24,9.28,80.61,5,3.12,14.47,4.9,33.5,8.47,12.46,2.33,22.91,3.76,30.29,4.64-1.07,9.37-4.22,24.61-15,38.47-30.29,38.86-91,28.8-99.68,27.23-30.55-5.57-60.61-15-67.87-20.77-11.06-8.79-19.75-15.38-24.89-22.07,11.82-5.72,35.69-20.78,51.71-25.71a296.27,296.27,0,0,1,33.43-8.2q2.51-16.19,5-32.36Z" transform="translate(-344.43 -382.57)"/><path class="cls-45" d="M2549.64,1241.54s-4.13,40.92-43.91,48.13c-35.61,6.46-62.42-79.61-44.19-101.87,6.08-7.42,21.09-14.49,34.1-14.11,9.15.26,40.06,12,44.37,43,6.16-6.48,13.83-8.35,17.61-5.63,4.8,3.44,2.23,13.46,1.64,15.73A28.84,28.84,0,0,1,2549.64,1241.54Z" transform="translate(-344.43 -382.57)"/><path class="cls-25" d="M2486.31,1905.72,2375.4,1631.07a34.45,34.45,0,0,1,21.46-45.71l219.48-70.11a26.34,26.34,0,0,1,30.36,16.07l113.41,289.54a26.33,26.33,0,0,1-17.18,34.89L2518,1921A26.33,26.33,0,0,1,2486.31,1905.72Z" transform="translate(-344.43 -382.57)"/><path class="cls-46" d="M2500.41,1747.71s-22.21-14.81-22.21-29.61-14.8-37-22.21-37-7.4,7.41,0,22.21-29.61,7.4-44.41-7.4-29.61-14.81-22.21-7.4c11.71,11.7,14.81,22.2,14.81,22.2s14.8,59.23,79.57,55.52Z" transform="translate(-344.43 -382.57)"/><path class="cls-8" d="M2655.86,1325.76c47.36-21.12,126.59,66,140.65,81.43,74.62,82,180.5,268,96.23,377.53-70.3,91.39-259,111.52-414.54-7.4q11.1-22.21,22.21-44.42c16.15,5.86,122.32,42.61,199.87-14.8,16.45-12.18,41.74-30.91,44.41-59.22,5-52.76-75.19-69-111-148.05C2601.93,1440.86,2615,1344,2655.86,1325.76Z" transform="translate(-344.43 -382.57)"/></g></g></svg>